<svg width="24" height="24" viewBox="0 0 24 24" fill="none" xmlns="http://www.w3.org/2000/svg">
<g id="icon/pencin">
<g id="Vector 1">
<path d="M21.1211 5.12132L19.7069 3.70711C19.3163 3.31658 18.6832 3.31658 18.2926 3.70711L17.5855 4.41421C17.195 4.80474 17.195 5.4379 17.5855 5.82843L18.9998 7.24264C19.3903 7.63316 20.0234 7.63316 20.414 7.24264L21.1211 6.53553C21.5116 6.14501 21.5116 5.51184 21.1211 5.12132Z" fill="white"/>
<path d="M16.8784 6.53553L18.2926 7.94971C18.6831 8.34023 18.6831 8.97339 18.2926 9.36392L7.68601 19.9705L5.74644 20.1861C5.10952 20.2568 4.57134 19.7187 4.64211 19.0817L4.85762 17.1421L15.4642 6.53553C15.8547 6.14501 16.4879 6.14501 16.8784 6.53553Z" fill="white"/>
</g>
</g>
</svg>
